<svg id="Capa_1" data-name="Capa 1" xmlns="http://www.w3.org/2000/svg" viewBox="0 0 767.62 930.41"><defs><style>.cls-1{fill:#ed8c00;stroke:#fff;stroke-miterlimit:10;}</style></defs><title>Logo</title><path class="cls-1" d="M772.72,465.81L404.17,20.55c-7.42-9-19.31-9.07-26.56-.24L17.11,458.92c-7.25,8.83-7.12,23.24.29,32.2L386,936.38c7.42,9,19.31,9.07,26.56.24L773,498C780.27,489.18,780.14,474.77,772.72,465.81ZM540.85,638.19l-73.2,54.62v-78.2s-1.49-37-37.22-37.24H389.5V577H359.69c-35.73.25-37.22,37.24-37.22,37.24v78.18l-73.2-54.62V264.11l74.43,58.37V432.93c-0.18,26.13,24.81,32.28,24.81,32.28v0h44.89l48.19,0.45s25-6.17,24.81-32.28V322.9l74.43-58.34V638.19Z" transform="translate(-11.25 -13.26)"/></svg>